<svg width="150" height="150" viewBox="0 0 150 150" fill="none" xmlns="http://www.w3.org/2000/svg">
<rect x="23" y="23" width="104" height="104" rx="52" fill="#CCF300"/>
<g clip-path="url(#clip0_3591_1767)">
<g filter="url(#filter0_d_3591_1767)">
<path fill-rule="evenodd" clip-rule="evenodd" d="M75 95C80.3043 95 85.3914 92.8929 89.1421 89.1421C92.8929 85.3914 95 80.3043 95 75C95 69.6957 92.8929 64.6086 89.1421 60.8579C85.3914 57.1071 80.3043 55 75 55C69.6957 55 64.6086 57.1071 60.8579 60.8579C57.1071 64.6086 55 69.6957 55 75C55 80.3043 57.1071 85.3914 60.8579 89.1421C64.6086 92.8929 69.6957 95 75 95ZM73.8875 67.92C73.511 67.6688 73.0734 67.5245 72.6213 67.5026C72.1692 67.4806 71.7197 67.5818 71.3206 67.7953C70.9215 68.0088 70.5879 68.3267 70.3553 68.715C70.1227 69.1033 69.9999 69.5474 70 70V80C69.9999 80.4526 70.1227 80.8967 70.3553 81.285C70.5879 81.6733 70.9215 81.9912 71.3206 82.2047C71.7197 82.4182 72.1692 82.5194 72.6213 82.4974C73.0734 82.4755 73.511 82.3312 73.8875 82.08L81.3875 77.08C81.7299 76.8517 82.0106 76.5424 82.2048 76.1795C82.399 75.8167 82.5006 75.4115 82.5006 75C82.5006 74.5885 82.399 74.1833 82.2048 73.8205C82.0106 73.4576 81.7299 73.1483 81.3875 72.92L73.8875 67.92Z" fill="white"/>
</g>
</g>
<path d="M78.1096 39.8352C77.4398 39.7687 76.87 39.5851 76.4002 39.2844C75.938 38.9844 75.5888 38.6303 75.3525 38.2219C75.117 37.8058 74.9819 37.3844 74.9473 36.9575L76.447 36.7138C76.5152 37.1902 76.7077 37.575 77.0245 37.8682C77.3414 38.1614 77.7586 38.3337 78.2761 38.3851C78.6719 38.4244 79.0014 38.357 79.2646 38.183C79.5353 38.0097 79.6843 37.7858 79.7115 37.5113C79.7363 37.2597 79.6665 37.0334 79.5019 36.8323C79.3458 36.6243 79.1185 36.4747 78.82 36.3835L77.5663 36.005C76.9017 35.8081 76.398 35.4617 76.0551 34.9657C75.7122 34.4697 75.5732 33.8939 75.638 33.2382C75.6833 32.7808 75.8542 32.3743 76.1507 32.0188C76.4555 31.6564 76.8358 31.3862 77.2915 31.2082C77.7548 31.0309 78.2338 30.9669 78.7286 31.016C79.3603 31.0787 79.8863 31.2387 80.3066 31.496C80.7269 31.7533 81.0426 32.058 81.2538 32.41C81.4732 32.7551 81.6071 33.111 81.6554 33.4776L80.1602 33.7911C80.0411 33.3636 79.8533 33.0485 79.5966 32.846C79.3407 32.6358 79.0035 32.5099 78.5849 32.4684C78.3489 32.4449 78.1309 32.4733 77.9308 32.5536C77.7383 32.6345 77.5809 32.7498 77.4585 32.8993C77.3445 33.042 77.2796 33.1933 77.2637 33.3534C77.2388 33.605 77.3007 33.8344 77.4493 34.0417C77.5986 34.2413 77.819 34.3825 78.1106 34.4653L79.2947 34.8485C80.0172 35.0819 80.5578 35.4435 80.9167 35.9334C81.2763 36.4156 81.4256 36.9655 81.3645 37.5831C81.3207 38.0252 81.1578 38.4287 80.8758 38.7933C80.5938 39.158 80.2124 39.4396 79.7316 39.6382C79.2592 39.83 78.7185 39.8956 78.1096 39.8352Z" fill="black"/>
<path d="M87.9897 33.0866L89.8935 33.7604L89.826 42.8168L88.2251 42.2502L88.2633 40.3136L85.148 39.211L83.9524 40.7379L82.3622 40.1751L87.9897 33.0866ZM88.3001 38.864L88.3644 35.0597L86.0285 38.06L88.3001 38.864Z" fill="black"/>
<path d="M95.8269 36.4948L97.1432 37.3339L93.2938 43.3936L96.3814 45.3617L95.6423 46.5252L91.2383 43.718L95.8269 36.4948Z" fill="black"/>
<path d="M102.979 41.5303L107.039 45.5075L106.076 46.4935L103.132 43.609L101.6 45.1783L104.38 47.9021L103.418 48.8881L100.637 46.1643L99.0811 47.7582L102.026 50.6427L101.063 51.6287L97.003 47.6515L102.979 41.5303Z" fill="black"/>
<path d="M103.032 54.2998C102.891 54.0996 102.837 53.8843 102.871 53.6538C102.916 53.4251 103.038 53.24 103.238 53.0984C103.432 52.9613 103.64 52.9119 103.864 52.9503C104.099 52.9906 104.287 53.1108 104.428 53.311C104.565 53.5049 104.614 53.714 104.576 53.9382C104.537 54.1625 104.418 54.3454 104.219 54.487C104.019 54.6286 103.804 54.6823 103.574 54.6483C103.354 54.6161 103.174 54.4999 103.032 54.2998Z" fill="black"/>
<path d="M112.901 53.9621L114.2 56.8672C114.437 57.3986 114.551 57.9144 114.54 58.4146C114.536 58.9117 114.399 59.3551 114.129 59.7448C113.862 60.1416 113.471 60.4558 112.954 60.6876C112.424 60.9256 111.91 61.0049 111.414 60.9255C110.924 60.8429 110.49 60.6221 110.112 60.263L107.783 63.4611L107.061 61.846L109.218 58.9389L108.618 57.5965L105.738 58.8884L105.1 57.4621L112.901 53.9621ZM110.545 58.5325C110.717 58.917 110.962 59.1761 111.282 59.3098C111.608 59.4403 111.953 59.4241 112.316 59.2612C112.679 59.0984 112.917 58.853 113.03 58.5252C113.151 58.1942 113.125 57.8365 112.953 57.4519L112.282 55.9522L109.874 57.0327L110.545 58.5325Z" fill="black"/>
<path d="M116.587 63.5051L117.677 69.0878L116.326 69.3526L115.535 65.3037L113.385 65.7251L114.132 69.5484L112.781 69.8132L112.034 65.9899L109.85 66.418L110.64 70.4669L109.289 70.7317L108.199 65.1489L116.587 63.5051Z" fill="black"/>
<path d="M118 72.939L117.947 74.156L112.29 77.9912L117.768 78.2318L117.7 79.7932L109.161 79.4182L109.215 78.1898L114.975 74.3706L109.393 74.1255L109.461 72.5641L118 72.939Z" fill="black"/>
<path d="M115.123 85.121L115.722 82.9859L117.048 83.3593L115.433 89.1119L114.107 88.7386L114.697 86.6366L107.795 84.692L108.22 83.1764L115.123 85.121Z" fill="black"/>
<path d="M106.132 89.1822C106.234 88.9596 106.394 88.8055 106.61 88.7199C106.83 88.6445 107.051 88.6581 107.274 88.7608C107.489 88.8604 107.636 89.0169 107.714 89.2304C107.797 89.454 107.786 89.6772 107.684 89.8998C107.585 90.1154 107.428 90.2626 107.215 90.3412C107.002 90.4199 106.784 90.4078 106.562 90.3051C106.34 90.2024 106.186 90.0426 106.101 89.8259C106.019 89.6194 106.029 89.4048 106.132 89.1822Z" fill="black"/>
<path d="M102.531 94.9527C102.926 94.4066 103.371 94.0059 103.867 93.7508C104.358 93.5018 104.84 93.378 105.311 93.3792C105.788 93.3849 106.22 93.4802 106.605 93.6653L106.06 95.0859C105.615 94.905 105.186 94.8778 104.774 95.0043C104.361 95.1308 104.003 95.4051 103.698 95.8271C103.465 96.1498 103.357 96.4689 103.374 96.7843C103.387 97.1059 103.505 97.3475 103.728 97.5093C103.933 97.6575 104.163 97.7111 104.42 97.6699C104.678 97.6395 104.921 97.5181 105.15 97.3058L106.108 96.4115C106.612 95.9355 107.165 95.6741 107.765 95.6271C108.366 95.5801 108.932 95.7498 109.465 96.1362C109.837 96.4057 110.101 96.7583 110.259 97.1939C110.418 97.6402 110.459 98.1054 110.383 98.5894C110.303 99.0797 110.117 99.5265 109.825 99.9299C109.453 100.445 109.05 100.82 108.617 101.054C108.183 101.288 107.761 101.408 107.351 101.413C106.943 101.429 106.569 101.366 106.228 101.223L106.711 99.7712C107.14 99.8835 107.506 99.8795 107.81 99.7595C108.12 99.6439 108.398 99.4154 108.645 99.0741C108.784 98.8817 108.869 98.6787 108.901 98.4652C108.928 98.2578 108.908 98.0635 108.841 97.8823C108.775 97.7118 108.677 97.5793 108.547 97.485C108.343 97.3368 108.114 97.2747 107.86 97.299C107.613 97.3277 107.38 97.4473 107.162 97.6579L106.235 98.4897C105.67 98.9973 105.086 99.2831 104.482 99.3469C103.885 99.4153 103.336 99.2675 102.834 98.9037C102.475 98.6431 102.209 98.299 102.036 97.8713C101.864 97.4436 101.813 96.9716 101.884 96.4555C101.956 95.9501 102.172 95.4492 102.531 94.9527Z" fill="black"/>
<path d="M103.389 106.9L101.852 108.211L94.0643 103.61L95.3568 102.507L97.01 103.511L99.5251 101.365L98.8062 99.5629L100.09 98.4674L103.389 106.9ZM98.2434 104.27L101.497 106.235L100.077 102.705L98.2434 104.27Z" fill="black"/>
<path d="M96.5067 112.012L95.1207 112.729L91.8284 106.349L88.5773 108.032L87.9452 106.807L92.5824 104.406L96.5067 112.012Z" fill="black"/>
<path d="M88.5765 115.663L83.1036 117.181L82.7361 115.852L86.7054 114.751L86.1205 112.636L82.3724 113.676L82.005 112.347L85.7531 111.307L85.159 109.158L81.1898 110.26L80.8224 108.931L86.2952 107.412L88.5765 115.663Z" fill="black"/>
<path d="M77.5274 109.235C77.7712 109.214 77.9839 109.276 78.1654 109.422C78.34 109.576 78.4379 109.775 78.4591 110.019C78.4796 110.256 78.4169 110.461 78.2708 110.635C78.1177 110.818 77.9193 110.92 77.6755 110.941C77.4392 110.961 77.2342 110.899 77.0603 110.752C76.8863 110.606 76.7888 110.411 76.7676 110.166C76.7464 109.922 76.8085 109.709 76.9539 109.527C77.0924 109.354 77.2835 109.256 77.5274 109.235Z" fill="black"/>
<path d="M72.8679 118L69.7072 117.669C69.1291 117.608 68.6268 117.448 68.2002 117.188C67.7729 116.935 67.4586 116.594 67.2574 116.164C67.0485 115.734 66.9735 115.237 67.0324 114.673C67.0928 114.094 67.2819 113.61 67.5995 113.219C67.9163 112.836 68.3246 112.571 68.8245 112.423L67.2301 108.801L68.9873 108.985L70.4164 112.312L71.8769 112.465L72.205 109.322L73.7568 109.485L72.8679 118ZM70.102 113.666C69.6837 113.622 69.3366 113.705 69.0609 113.915C68.7845 114.133 68.6255 114.44 68.5842 114.836C68.5428 115.232 68.6353 115.562 68.8617 115.824C69.0872 116.094 69.4092 116.251 69.8276 116.295L71.4593 116.466L71.7337 113.837L70.102 113.666Z" fill="black"/>
<path d="M62.7858 116.413L57.416 114.562L57.864 113.258L61.7584 114.6L62.4715 112.525L58.794 111.257L59.2419 109.953L62.9195 111.221L63.6437 109.113L59.7492 107.77L60.1972 106.466L65.567 108.317L62.7858 116.413Z" fill="black"/>
<path d="M53.9086 112.9L52.8856 112.242L52.4245 105.415L49.4595 110.036L48.147 109.191L52.7682 101.989L53.8008 102.654L54.1965 109.561L57.2173 104.853L58.5298 105.698L53.9086 112.9Z" fill="black"/>
<path d="M44.7942 104.346L46.3377 105.936L45.3506 106.897L41.1921 102.613L42.1792 101.651L43.6986 103.217L48.8397 98.2102L49.9353 99.3391L44.7942 104.346Z" fill="black"/>
<path d="M45.8801 94.4351C46.0204 94.636 46.0731 94.8516 46.038 95.0819C45.9922 95.3104 45.8691 95.4949 45.6686 95.6355C45.4743 95.7717 45.2654 95.82 45.0417 95.7804C44.8073 95.739 44.62 95.6179 44.4797 95.417C44.3437 95.2225 44.2955 95.0131 44.3349 94.7891C44.3744 94.565 44.4944 94.3827 44.6949 94.2421C44.8954 94.1015 45.1107 94.0488 45.3406 94.0839C45.5599 94.1172 45.7397 94.2343 45.8801 94.4351Z" fill="black"/>
<path d="M42.6705 88.4417C42.9446 89.0575 43.0676 89.6443 43.0395 90.202C43.0084 90.7528 42.8742 91.2322 42.637 91.6401C42.3929 92.0511 42.0943 92.3774 41.7412 92.6189L40.787 91.4346C41.1664 91.1393 41.4048 90.7812 41.5021 90.3602C41.5995 89.9393 41.5423 89.4909 41.3305 89.0151C41.1685 88.6512 40.9469 88.3979 40.6656 88.2551C40.3812 88.1053 40.1133 88.0865 39.8618 88.1988C39.6313 88.3018 39.4696 88.4747 39.3767 88.7175C39.2737 88.9564 39.2565 89.2283 39.3252 89.5332L39.6179 90.8117C39.7764 91.4875 39.7254 92.0974 39.4651 92.6415C39.2049 93.1855 38.7743 93.5917 38.1736 93.86C37.7545 94.0472 37.3173 94.0998 36.8621 94.0179C36.3969 93.9321 35.9742 93.735 35.5941 93.4266C35.2109 93.1113 34.918 92.7262 34.7156 92.2713C34.4571 91.6906 34.3353 91.1536 34.3503 90.6604C34.3652 90.1672 34.473 89.7415 34.6738 89.3835C34.8644 89.0215 35.1067 88.7287 35.4008 88.5051L36.4132 89.651C36.1014 89.9664 35.9212 90.2859 35.8727 90.6096C35.8171 90.9363 35.875 91.2922 36.0463 91.677C36.1429 91.8939 36.2755 92.0696 36.4442 92.204C36.6097 92.3313 36.7876 92.4113 36.9779 92.4437C37.1581 92.4723 37.3216 92.4538 37.4683 92.3883C37.6988 92.2853 37.8671 92.1179 37.9732 91.8859C38.0724 91.6571 38.0857 91.3953 38.0131 91.1006L37.7589 89.8804C37.6035 89.1361 37.6493 88.4865 37.8964 87.9316C38.1365 87.3798 38.5394 86.9776 39.1052 86.7248C39.5104 86.5439 39.9409 86.4858 40.3969 86.5506C40.8528 86.6154 41.2859 86.8078 41.6963 87.1278C42.0966 87.444 42.4214 87.8819 42.6705 88.4417Z" fill="black"/>
<path d="M31.9262 83.1813L31.5683 81.1907L39.4573 76.7665L39.7583 78.4404L38.0595 79.3657L38.6452 82.623L40.5615 82.9078L40.8605 84.5704L31.9262 83.1813ZM36.7839 80.0513L33.4521 81.8784L37.211 82.4264L36.7839 80.0513Z" fill="black"/>
<path d="M31 74.6877L31.0721 73.1265L38.2348 73.4586L38.404 69.7965L39.7792 69.8603L39.5379 75.0836L31 74.6877Z" fill="black"/>
<path d="M31.8045 65.9693L33.2341 60.4639L34.5664 60.811L33.5296 64.8038L35.6503 65.3564L36.6293 61.586L37.9617 61.9332L36.9827 65.7035L39.1367 66.2647L40.1735 62.272L41.5058 62.6191L40.0763 68.1245L31.8045 65.9693Z" fill="black"/>
<path d="M42.861 59.5884C42.7585 59.811 42.599 59.9651 42.3827 60.0508C42.1626 60.1262 41.9414 60.1126 41.7192 60.0098C41.504 59.9103 41.3571 59.7538 41.2785 59.5403C41.1963 59.3166 41.2064 59.0935 41.309 58.8709C41.4083 58.6552 41.5646 58.5081 41.7777 58.4294C41.9909 58.3508 42.2085 58.3628 42.4308 58.4656C42.653 58.5683 42.8068 58.728 42.8923 58.9447C42.974 59.1513 42.9636 59.3658 42.861 59.5884Z" fill="black"/>
<path d="M37.6404 51.1671L39.5115 48.594C39.8537 48.1234 40.2442 47.7685 40.683 47.5294C41.1156 47.2859 41.5678 47.1845 42.0395 47.2254C42.5158 47.2601 42.9826 47.4444 43.4401 47.7782C43.91 48.121 44.2339 48.5279 44.4118 48.9989C44.5835 49.4655 44.6079 49.9524 44.4849 50.4598L48.4127 50.8945L47.3724 52.325L43.7821 51.8948L42.9175 53.0838L45.4677 54.9445L44.549 56.2078L37.6404 51.1671ZM42.7706 50.9436C43.0183 50.603 43.1206 50.2606 43.0776 49.9164C43.0283 49.5677 42.843 49.276 42.5215 49.0415C42.2 48.8069 41.8692 48.7219 41.5289 48.7864C41.1825 48.8465 40.8854 49.0468 40.6378 49.3874L39.6719 50.7157L41.8047 52.2719L42.7706 50.9436Z" fill="black"/>
<path d="M44.11 43.248L48.4031 39.5242L49.3043 40.5667L46.1907 43.2674L47.6251 44.9267L50.5652 42.3765L51.4664 43.419L48.5263 45.9693L49.9832 47.6546L53.0968 44.954L53.998 45.9965L49.7049 49.7203L44.11 43.248Z" fill="black"/>
<path d="M51.5874 37.3178L52.6687 36.7604L58.7993 39.7781L56.2901 34.8937L57.6775 34.1786L61.5883 41.7913L60.4967 42.3539L54.3291 39.239L56.8856 44.2154L55.4982 44.9305L51.5874 37.3178Z" fill="black"/>
<path d="M63.5757 33.7517L61.4267 34.2861L61.0951 32.9476L66.8851 31.508L67.2167 32.8465L65.1012 33.3725L66.8285 40.3434L65.3031 40.7227L63.5757 33.7517Z" fill="black"/>
<path d="M71.5625 39.6299C71.3186 39.6502 71.1061 39.5871 70.9252 39.4408C70.7512 39.2861 70.654 39.0866 70.6338 38.8423C70.6141 38.6056 70.6777 38.4004 70.8245 38.2268C70.9782 38.0449 71.177 37.9437 71.4209 37.9234C71.6572 37.9038 71.862 37.9674 72.0354 38.1145C72.2088 38.2615 72.3056 38.4571 72.3259 38.7015C72.3461 38.9458 72.2832 39.1586 72.1371 39.3399C71.9979 39.5129 71.8064 39.6096 71.5625 39.6299Z" fill="black"/>
<rect opacity="0.3" x="13.5" y="13.5" width="123" height="123" rx="61.5" stroke="white"/>
<rect opacity="0.1" x="0.5" y="0.5" width="149" height="149" rx="74.5" stroke="white"/>
<defs>
<filter id="filter0_d_3591_1767" x="44" y="48" width="62" height="62" filterUnits="userSpaceOnUse" color-interpolation-filters="sRGB">
<feFlood flood-opacity="0" result="BackgroundImageFix"/>
<feColorMatrix in="SourceAlpha" type="matrix" values="0 0 0 0 0 0 0 0 0 0 0 0 0 0 0 0 0 0 127 0" result="hardAlpha"/>
<feOffset dy="4"/>
<feGaussianBlur stdDeviation="5.5"/>
<feComposite in2="hardAlpha" operator="out"/>
<feColorMatrix type="matrix" values="0 0 0 0 0 0 0 0 0 0 0 0 0 0 0 0 0 0 0.12 0"/>
<feBlend mode="normal" in2="BackgroundImageFix" result="effect1_dropShadow_3591_1767"/>
<feBlend mode="normal" in="SourceGraphic" in2="effect1_dropShadow_3591_1767" result="shape"/>
</filter>
<clipPath id="clip0_3591_1767">
<rect width="66" height="66" fill="white" transform="translate(42 42)"/>
</clipPath>
</defs>
</svg>
