<svg width="556" height="97" viewBox="0 0 556 97" fill="none" xmlns="http://www.w3.org/2000/svg">
<path d="M127.464 68.616C127.464 88.2 114.136 96.768 68.304 96.768C45.184 96.768 18.392 93.504 1.664 89.424L5.608 67.256C24.648 71.472 47.768 75.144 75.648 75.144C97.408 75.144 101.352 73.376 101.352 67.8C101.352 62.088 97.952 61.408 90.744 60.728L39.472 57.736C10.64 56.376 0.168 47.128 0.168 29.856C0.168 9.048 18.392 0.615999 61.368 0.615999C77.824 0.615999 104.616 3.2 122.976 7.144L118.488 27.952C102.712 24.824 78.232 22.24 54.976 22.24C29.952 22.24 26.28 23.6 26.28 29.176C26.28 34.344 29.816 35.16 38.248 35.704L88.84 38.696C115.496 40.192 127.464 49.44 127.464 68.616ZM213.378 96.904C160.202 96.904 137.218 81.808 137.218 48.624C137.218 15.44 160.202 0.343995 213.378 0.343995C266.554 0.343995 289.538 15.44 289.538 48.624C289.538 81.808 266.554 96.904 213.378 96.904ZM213.378 73.24C250.506 73.24 261.386 66.576 261.386 48.624C261.386 30.672 250.506 24.008 213.378 24.008C176.114 24.008 164.826 30.672 164.826 48.624C164.826 66.576 176.114 73.24 213.378 73.24ZM329.179 71.336H421.251V95H301.571V2.24799H329.179V71.336ZM555.088 95H431.328V2.24799H555.088V23.872H458.936V39.24H552.504V57.056H458.936V73.376H555.088V95Z" fill="#F0F0F0"/>
</svg>
